<?xml version="1.0" encoding="utf-8"?>
<!-- Generator: Adobe Illustrator 22.1.0, SVG Export Plug-In . SVG Version: 6.00 Build 0)  -->
<svg version="1.1" id="Ebene_1" xmlns="http://www.w3.org/2000/svg" xmlns:xlink="http://www.w3.org/1999/xlink" x="0px" y="0px"
	 viewBox="0 0 226.8 226.8" style="enable-background:new 0 0 226.8 226.8;" xml:space="preserve">
<style type="text/css">
	.st0{fill:#9DC33B;}
	.st1{opacity:0.3;clip-path:url(#SVGID_2_);fill:#206C67;}
	.st2{fill:#206C67;}
	.st3{fill:none;stroke:#FFFFFF;stroke-width:5;stroke-linecap:round;stroke-miterlimit:10;}
	.st4{fill:none;stroke:#FFFFFF;stroke-width:0.75;stroke-linecap:round;stroke-miterlimit:10;}
	.st5{fill:none;stroke:#FFFFFF;stroke-width:3;stroke-linecap:round;stroke-linejoin:round;stroke-miterlimit:10;}
</style>
<g>
	<g>
		<path class="st0" d="M226.8,113.4c0,62.6-50.8,113.4-113.4,113.4C50.8,226.8,0,176,0,113.4S50.8,0,113.4,0
			C176,0,226.8,50.8,226.8,113.4z"/>
	</g>
	<g>
		<defs>
			<path id="SVGID_1_" d="M226.8,113.4c0,62.6-50.8,113.4-113.4,113.4C50.8,226.8,0,176,0,113.4S50.8,0,113.4,0
				C176,0,226.8,50.8,226.8,113.4z"/>
		</defs>
		<clipPath id="SVGID_2_">
			<use xlink:href="#SVGID_1_"  style="overflow:visible;"/>
		</clipPath>
		<path class="st1" d="M186,171c0,0-16.9-0.1-25.1,0.6c-12.6,1.1-34,0.6-61.7,0.6c-23.5,0-23.9-3.3-57.1-2.8l91.5,101.5
			c44.1-9.1,132.2,34.5,141.3-9.6C274.9,261.2,186.1,171.1,186,171z"/>
	</g>
	<g>
		<g>
			<path class="st2" d="M106.6,169.6L87,141.4h-1.2H65.5v28.2H42.1V68.4h43.8c9,0,16.8,1.5,23.4,4.5c6.6,3,11.7,7.2,15.3,12.7
				c3.6,5.5,5.4,12,5.4,19.5s-1.8,14-5.4,19.5c-3.6,5.4-8.8,9.6-15.4,12.5l22.7,32.6H106.6z M100.6,92c-3.7-3-9-4.6-16.1-4.6H65.5
				v35.3h19.1c7,0,12.4-1.5,16.1-4.6c3.7-3.1,5.5-7.4,5.5-13C106.1,99.4,104.3,95,100.6,92z"/>
		</g>
		<g>
			<g>
				<polyline class="st3" points="183.8,172.4 64.3,172.4 64.3,53 				"/>
			</g>
			<g>
				<line class="st4" x1="62.2" y1="58.6" x2="73.8" y2="58.6"/>
				<line class="st4" x1="62.2" y1="68.9" x2="73.8" y2="68.9"/>
				<line class="st4" x1="62.2" y1="79.2" x2="73.8" y2="79.2"/>
				<line class="st4" x1="62.2" y1="89.4" x2="73.8" y2="89.4"/>
				<line class="st4" x1="62.2" y1="99.7" x2="73.8" y2="99.7"/>
				<line class="st4" x1="62.2" y1="110" x2="73.8" y2="110"/>
				<line class="st4" x1="62.2" y1="120.2" x2="73.8" y2="120.2"/>
				<line class="st4" x1="62.2" y1="130.5" x2="73.8" y2="130.5"/>
				<line class="st4" x1="62.2" y1="140.8" x2="73.8" y2="140.8"/>
				<line class="st4" x1="62.2" y1="151" x2="73.8" y2="151"/>
				<line class="st4" x1="62.2" y1="161.3" x2="73.8" y2="161.3"/>
			</g>
			<g>
				<line class="st4" x1="76.2" y1="174.1" x2="76.2" y2="162.5"/>
				<line class="st4" x1="86.4" y1="174.1" x2="86.4" y2="162.5"/>
				<line class="st4" x1="96.7" y1="174.1" x2="96.7" y2="162.5"/>
				<line class="st4" x1="107" y1="174.1" x2="107" y2="162.5"/>
				<line class="st4" x1="117.2" y1="174.1" x2="117.2" y2="162.5"/>
				<line class="st4" x1="127.5" y1="174.1" x2="127.5" y2="162.5"/>
				<line class="st4" x1="137.8" y1="174.1" x2="137.8" y2="162.5"/>
				<line class="st4" x1="148" y1="174.1" x2="148" y2="162.5"/>
				<line class="st4" x1="158.3" y1="174.1" x2="158.3" y2="162.5"/>
				<line class="st4" x1="168.6" y1="174.1" x2="168.6" y2="162.5"/>
				<line class="st4" x1="178.8" y1="174.1" x2="178.8" y2="162.5"/>
			</g>
		</g>
		<path class="st5" d="M64.3,160.5l23.9-12.7l7.3,4l8.9-27.3l7.1,18l25.2-34.5c0,0,4,8,4,6.2s7.9-16.6,7.9-16.6v33.4l13.2-47.6
			l4.7,21.5L181,64"/>
	</g>
</g>
</svg>
